<?xml version="1.0" encoding="utf-8"?>
<!-- Generator: Adobe Illustrator 18.1.1, SVG Export Plug-In . SVG Version: 6.00 Build 0)  -->
<svg version="1.1" xmlns="http://www.w3.org/2000/svg" xmlns:xlink="http://www.w3.org/1999/xlink" x="0px" y="0px"
	 viewBox="0 0 420 344" enable-background="new 0 0 420 344" xml:space="preserve">
<g id="Layer_1" display="none">
	
		<image display="inline" overflow="visible" width="918" height="1002" xlink:href="Screen Shot 2015-10-09 at 12.06.25 AM.png"  transform="matrix(0.5 0 0 0.5 -101 -24.5)">
	</image>
</g>
<g id="Layer_9">
	<path fill="#CC3300" d="M100.1,250.9c-10.9-5.9-24.4-3.5-36.2,0.2c-2.8,0.9-5.7,1.9-7.6,4.1c-1.3,1.4-2,3.3-2.7,5.1
		c-3.6,9.2-7.2,18.5-10.8,27.7c-1.1,2.7-2.1,5.5-2.3,8.3s0.8,6,3.1,7.7c1.8-7.1,3.9-14.8,9.8-19.2c1.7-1.3,3.7-2.2,5.5-3.5
		c2.1-1.5,3.9-3.5,5.8-5.2c4.4-3.9,9.9-6.4,15-9.4C87.2,262.3,94,257,100.1,250.9z"/>
</g>
<g id="Layer_3">
	<path fill="#CC3300" d="M108.4,92.5c-8.9,1.1-16.4,7.1-22.8,13.4c-9.7,9.5-18.1,20.5-24.9,32.3c-2.8,4.9-5.3,10.1-7.8,15.2
		c-1.9,3.9-3.9,7.9-5.5,12c-3.9,10-6.1,21-13.3,29c2,0.2,4,0.5,6,0.7c0.6,4.9,1.2,10.3-1.4,14.5c-0.7,1.1-1.6,2.1-2,3.4
		c-0.5,1.2-0.5,2.6-0.5,3.9c0,7.2,0.4,14.4,1.2,21.6c2.8-2,5.6-4.1,8.4-6.1c0.5,2.8,0.9,5.6,1.4,8.4c0.4-3.4,1.5-6.6,3.2-9.6
		c3.9,9.5,7.8,19.1,11.8,28.6c1.1,2.7,2.5,5.6,5.2,6.5c0.7,0.2,1.5,0.3,2-0.3s0-1.6-0.7-1.4c-0.3,4.2,0.3,8.5,1.7,12.5
		c5.2-3.5,3.9-11.4,2-17.3c6.8,2.5,14.4,2.8,21.3,0.8c3.3-0.9,6.7-2.4,10-1.6c0,3.1,3,5.8,6.1,5.5c2.4-2.9,4.6-6.1,6.5-9.4
		c-0.5,3.2-1,6.4-1.4,9.6c4.4,0.7,8.5,2.8,11.6,6c3.1-2.8,3.2-7.7,2.4-11.8s-2.4-8.3-1.7-12.4c0.5-3.6,2.6-6.7,3.8-10.1
		c1.9-5,2-10.5,2.7-15.8c2.1-18.6,9.7-36,14.3-54.1c6.6-26.5,6.4-54.6-0.4-81c-0.6-2.2-1.2-4.4-2.3-6.4c-1.7-3-4.3-5.2-7-7.3
		c-4-3.2-8.6-6.2-13.7-6c-5.7,0.2-10.6,4.7-13,9.9C109.2,80.9,108.8,86.8,108.4,92.5z"/>
</g>
<g id="Layer_2">
	<path fill="#CC3300" d="M104.1,111.3c-2.4-1.7-6-0.2-7.5,2.4c-1.5,2.5-1.5,5.6-1.4,8.6c-1.9,2.2-5.4,2.4-8,1.2
		c-2.6-1.2-4.6-3.5-6.3-5.8c-1.3-1.8-2.6-3.7-2.9-5.9c-0.7-5.7,5.1-10.2,6.1-15.9c0.5-2.7-0.2-5.4-0.1-8.2
		c0.2-7.3,5.5-13.3,10.7-18.3c2.1-2,4.3-4.1,6.9-5.6c8.3-5,19.4-3.8,27.6,1.5c8.1,5.3,13.5,14.1,16.4,23.3
		c2.9,9.3,3.4,19.1,3.6,28.8c-5.7-2.4-10.4-7.1-12.9-12.7c-1.9-0.6-3.8,0.8-5.6,1.8c-1.8,1-4.6,1.1-5.3-0.8c-1-3,5-5.9,2.8-8.2
		c-4.4,2.4-10.3,5.1-16.4,4.4c-4-0.5-8.2-4.1-11.4-4.3c1,3.5,9.5,10,13,10.9c1,0.3,2.2,0.6,2.8,1.5c1.3,2-1,4.3-3,5.5
		s-4.3,3.5-3.1,5.5C106.4,119.7,107.4,113.6,104.1,111.3z"/>
</g>
<g id="Layer_7">
	<path fill="#3D1009" d="M125,104.5c0.5-0.7,1.4-1,1.9-1.6c0.2-0.3,0.4-0.7,0.6-1c0.4-0.7,1.2-1.2,1.9-1.7c2.2-1.4,4.4-2.9,6.5-4.3
		c0.2,1.5,0.3,3.1-0.3,4.4c-0.2,0.5-0.6,0.9-0.9,1.4c-1.2,1.5-2.6,2.9-4.4,3.8s-3.8,1.2-5.6,0.7C124.5,105.6,124.7,105,125,104.5z"
		/>
	<path fill="#3D1009" d="M83.8,89.1c0.3-1.6,2-2.8,3.6-2.5c1.4,0.3,2.3,1.6,3.1,2.8c2.8,4.4,5.5,8.8,8.2,13.3c0.6,1,1.2,2.1,0.7,3.2
		c-1.2-0.2-2.4,0.1-3.3,0.9c-1.9-4.5-5.3-8.3-8.9-11.6C85.4,93.5,83.4,91.5,83.8,89.1z"/>
</g>
<g id="Layer_4">
	<circle fill="#20242B" cx="130.8" cy="101.8" r="3.5"/>
	<circle fill="#20242B" cx="93.1" cy="100.1" r="3.4"/>
</g>
<g id="Layer_6">
	<circle fill="#FFFFFF" cx="91.5" cy="98.3" r="0.7"/>
	<circle fill="#FFFFFF" cx="129.7" cy="100.2" r="0.7"/>
</g>
<g id="Layer_8">
	<path fill="#003366" d="M112,118.3c0.3-0.3,0.6-0.5,0.9-0.8c0.5-0.5,0.8-1.1,1-1.7c0.4-1,0.6-2.1,0.6-3.2c0-2.2-0.7-4.3-1.5-6.3
		c-0.1-0.2-0.2-0.5-0.3-0.6c-0.2-0.2-0.5-0.4-0.8-0.5c-0.8-0.2-1.7,0-2.4,0.5c-0.7,0.5-1.3,1.1-1.8,1.8c-0.9,1.1-1.9,2.3-2.4,3.8
		c-0.2,0.7-0.3,1.5-0.3,2.3c-0.1,2.8,0.9,5.9,3.3,7.4c0.7,0.4,1.5,0.7,1.9,1.4C110.3,120.7,110.9,119.2,112,118.3z"/>
</g>
<g id="Layer_5">
	<path fill="#FFCC00" d="M118.4,106.6c0,1.7,0.9,3.4,2.3,4.3c-0.4,0.8-1,1.4-1.7,1.9c-0.8,0.4-1.7,0.7-2.5,1.1
		c-1.4,0.7-2.3,2-3.2,3.3c-0.2-0.8,0-1.6,0-2.4s-0.1-1.8-0.9-2.1c-0.4-0.2-1-0.2-1.4-0.3c-0.7-0.2-1.2-1-1.1-1.7
		c0-0.2,0.1-0.3,0-0.5c-0.2-0.4-0.8-0.2-1.1,0.1c-0.5,0.7-0.2,1.8-0.5,2.6c-0.4,1-1.7,1.6-2.7,1.1c-0.1,0.6-0.1,1.2-0.2,1.7
		c-0.3-0.7-0.6-1.3-0.9-2c-0.4-0.9-0.8-1.8-1.5-2.5c-0.7-0.7-1.7-1.2-2.7-0.9c1-0.7,1.9-1.4,2.7-2.3c0.7-0.9,1.2-2.1,1-3.3
		c-0.1-0.4-0.2-0.9,0-1.2c0.1-0.2,0.4-0.3,0.6-0.4c1.6-0.5,3.3-0.7,4.9-0.6c1.7,0.1,3.3,0.6,5,1.1c0.5,0.1,0.9,0.3,1.4,0.4
		c0.9,0.3,2,0.6,2.3,1.6C118.4,105.7,118.4,106.2,118.4,106.6z"/>
</g>
<g id="Layer_10">
	<text transform="matrix(1 0 0 1 193.1665 145.0002)" font-family="'AdobeMingStd-Light-B5pc-H'" font-size="48">Kestryl</text>
</g>
</svg>
